<svg xmlns="http://www.w3.org/2000/svg" width="168.25" height="40.24" viewBox="0 0 168.25 40.24"><defs><style>.soloLogoA,.soloLogoD{fill:#fff;}.soloLogoB{fill:#0eb1e4;}.soloLogoB,.soloLogoC,.soloLogoD,.soloLogoE,.soloLogoF,.soloLogoG,.soloLogoH{fill-rule:evenodd;}.soloLogoC{fill:#158bc2;}.soloLogoE{fill:#ddf4f9;}.soloLogoF{fill:#35393b;}.soloLogoG{fill:#c18e2e;}.soloLogoH{fill:#a96c25;}.soloLogoI{fill:#b1e7ff;stroke:#2196c9;stroke-width:0.25px;}</style></defs><g transform="translate(-92 -7.977)"><g transform="translate(92 7.977)"><path class="soloLogoA" d="M132.558,35.14a3.793,3.793,0,0,0,2.822-1.193,4.171,4.171,0,0,0,0-5.8,3.934,3.934,0,0,0-5.643,0,4.171,4.171,0,0,0,0,5.8,3.786,3.786,0,0,0,2.821,1.193m-25.494,0a3.792,3.792,0,0,0,2.822-1.193,4.171,4.171,0,0,0,0-5.8,3.934,3.934,0,0,0-5.643,0,4.171,4.171,0,0,0,0,5.8,3.786,3.786,0,0,0,2.822,1.193Zm-19.667,0a3.791,3.791,0,0,0,2.822-1.193,4.173,4.173,0,0,0,0-5.8,3.935,3.935,0,0,0-5.644,0,4.171,4.171,0,0,0,0,5.8A3.788,3.788,0,0,0,87.4,35.14Zm29.8-.61a1.643,1.643,0,0,1,.793.208,1.554,1.554,0,0,1,.618.612,1.615,1.615,0,0,1,.005,1.623,1.552,1.552,0,0,1-.608.609,1.618,1.618,0,0,1-1.621,0,1.565,1.565,0,0,1-.607-.608,1.651,1.651,0,0,1-.217-.806,1.677,1.677,0,0,1,.216-.814,1.507,1.507,0,0,1,.62-.618,1.669,1.669,0,0,1,.8-.205Zm15.358-10.246a6.374,6.374,0,0,1,4.7,1.992,6.815,6.815,0,0,1,0,9.546,6.577,6.577,0,0,1-9.4,0,6.807,6.807,0,0,1,0-9.546A6.355,6.355,0,0,1,132.558,24.284Zm-9.79,0a1.354,1.354,0,0,1,1.333,1.337V36.478a1.26,1.26,0,0,1-.4.937,1.335,1.335,0,0,1-2.274-.937V25.621a1.35,1.35,0,0,1,1.337-1.337Zm0-4.383a1.642,1.642,0,0,1,.793.207,1.555,1.555,0,0,1,.618.612,1.613,1.613,0,0,1,0,1.623,1.546,1.546,0,0,1-.608.609,1.619,1.619,0,0,1-1.62,0,1.564,1.564,0,0,1-.607-.609,1.653,1.653,0,0,1-.216-.806,1.68,1.68,0,0,1,.216-.814,1.516,1.516,0,0,1,.62-.618,1.669,1.669,0,0,1,.8-.2Zm-15.7,4.383a6.372,6.372,0,0,1,4.7,1.992,6.815,6.815,0,0,1,0,9.546,6.577,6.577,0,0,1-9.4,0,6.806,6.806,0,0,1,0-9.546,6.356,6.356,0,0,1,4.7-1.992Zm-9.829-4.406a1.333,1.333,0,0,1,1.326,1.337V36.477A1.313,1.313,0,0,1,97.235,37.8a1.322,1.322,0,0,1-.949-.385,1.28,1.28,0,0,1-.384-.937V21.215a1.282,1.282,0,0,1,.384-.94,1.3,1.3,0,0,1,.949-.4ZM87.4,24.284a6.372,6.372,0,0,1,4.7,1.992,6.815,6.815,0,0,1,0,9.546,6.573,6.573,0,0,1-9.4,0,6.807,6.807,0,0,1,0-9.546,6.354,6.354,0,0,1,4.7-1.993ZM75.642,37.8a4.642,4.642,0,0,1-2.62-.826,5.521,5.521,0,0,1-1.652-1.7,1.259,1.259,0,0,1-.157-.994,1.3,1.3,0,0,1,1.593-1,1.284,1.284,0,0,1,.825.6,2.875,2.875,0,0,0,.849.857,2.072,2.072,0,0,0,1.162.405,1.661,1.661,0,0,0,1.153-.424,1.214,1.214,0,0,0,.467-.963.967.967,0,0,0-.348-.828,6.258,6.258,0,0,0-1.637-.618,8.152,8.152,0,0,1-2.5-1.051,3.411,3.411,0,0,1-1.418-2.927,3.8,3.8,0,0,1,1.268-2.867,4.257,4.257,0,0,1,3.018-1.179,4.4,4.4,0,0,1,2.348.659,4.039,4.039,0,0,1,1.572,1.77,1.329,1.329,0,0,1-1.665,1.8,1.307,1.307,0,0,1-.753-.7,1.437,1.437,0,0,0-.578-.638,1.826,1.826,0,0,0-.927-.243,1.7,1.7,0,0,0-1.162.422,1.235,1.235,0,0,0-.454.966.954.954,0,0,0,.32.8,6.841,6.841,0,0,0,1.643.608A8.25,8.25,0,0,1,78.5,30.793a3.467,3.467,0,0,1,1.418,2.958,3.812,3.812,0,0,1-1.256,2.871A4.267,4.267,0,0,1,75.643,37.8Z" transform="translate(-31.212 -8.717)"/><path class="soloLogoB" d="M14.513,1.1c.73-1.048,1.44-1.412,1.9-.8a7.715,7.715,0,0,0,5.8,3.126A7.715,7.715,0,0,0,28.018.3c.46-.61,1.167-.245,1.9.8,3.365,4.816,3.822,9.569,1.708,12.835,4.155,4.217,3,9.991,1.506,12.775-.641,1.2-.892,1.106-1.6.464-.22-.2-.476-.431-.762-.693A18.9,18.9,0,0,1,29.4,30.264c-.862,1.82-2.751,2.128-2.856-.017H17.884c-.106,2.145-1.994,1.837-2.856.017a18.9,18.9,0,0,1-1.367-3.784c-.287.262-.542.494-.762.693-.709.641-.96.73-1.6-.464C9.806,23.924,8.652,18.15,12.8,13.933,10.69,10.668,11.147,5.915,14.512,1.1" transform="translate(-4.356 0)"/><path class="soloLogoC" d="M25.118,3.422A7.715,7.715,0,0,0,30.922.3c.46-.61,1.167-.245,1.9.8,3.365,4.816,3.822,9.569,1.708,12.835,4.155,4.217,3,9.991,1.506,12.775-.641,1.2-.892,1.106-1.6.464-.22-.2-.476-.431-.762-.693a18.893,18.893,0,0,1-1.367,3.784c-.862,1.82-2.751,2.128-2.856-.017H25.118v-12.5c0-.371.225-.657-1.123-.82-3.166-.384-6.129-2.335-7.13-5.119a5.176,5.176,0,0,1-.307-1.751,3.579,3.579,0,0,1,1.491-2.938A3.877,3.877,0,0,1,23.6,8.163a8.914,8.914,0,0,1,.865,3.633c.049.453.086.934.165,1.381.036.21.094.505.309.6.116.056.041.036.172.036Z" transform="translate(-7.261 0)"/><path class="soloLogoB" d="M24.2,59.609c-.1.221-.372,1.653-.7,1.867-1.205.776-4.716-7.852-4.947-8.815a93.6,93.6,0,0,1,14.9-.009c-.225.943-3.731,9.608-4.95,8.822-.333-.214-.606-1.647-.705-1.867-.176.529-.915,3.808-1.888,3.585-.951-.219-1.476-2.9-1.7-3.585" transform="translate(-8.133 -22.962)"/><path class="soloLogoC" d="M26.313,52.364c2.669,0,5.339.094,7.451.293a23.45,23.45,0,0,1-.839,2.233l-.005.013-.006.015-.006.015-.006.015-.006.015-.006.015-.006.015-.012.03-.006.015-.006.015-.006.015-.007.015,0,.01v.006l-.007.015-.006.015-.006.015-.006.015-.007.015-.007.015L32.8,55.2l-.012.03-.006.015-.007.015-.006.015v.005l0,.01-.006.015-.007.015-.012.03-.007.015-.013.03-.007.015-.006.015-.007.015-.006.016-.007.015-.006.015-.007.015-.007.016-.06.139-.006.012v0l-.007.016-.006.016-.027.062-.007.016-.028.063-.007.016c-1.195,2.74-2.916,6.12-3.7,5.618-.333-.215-.606-1.647-.705-1.868-.168.511-.868,3.6-1.8,3.593V55.759c0-.468-.056-1.108-1.2-1.081a52.951,52.951,0,0,0-5.294.481c-.149-.34-.413-1.023-.542-1.334a60.65,60.65,0,0,1,7.027-.4h.011Z" transform="translate(-8.454 -22.964)"/><path class="soloLogoD" d="M25.121,20.356a9.713,9.713,0,0,0,1.367-.1c3.327-.476,7.187-2.907,7.187-6.645a3.579,3.579,0,0,0-1.491-2.938,3.877,3.877,0,0,0-5.553,1.049,8.915,8.915,0,0,0-.865,3.633c-.049.453-.086.933-.165,1.381-.037.209-.094.505-.309.6-.116.056-.041.036-.172.036s-.056.019-.172-.036c-.214-.1-.272-.393-.309-.6-.079-.449-.116-.928-.165-1.381a8.93,8.93,0,0,0-.865-3.633,3.877,3.877,0,0,0-5.553-1.049,3.579,3.579,0,0,0-1.491,2.938,5.175,5.175,0,0,0,.307,1.751c1.146,3.192,5.025,4.992,8.248,4.992" transform="translate(-7.264 -4.355)"/><path class="soloLogoE" d="M31.807,20.356a9.71,9.71,0,0,0,1.367-.1c3.327-.476,7.187-2.907,7.187-6.645a3.579,3.579,0,0,0-1.491-2.938,3.877,3.877,0,0,0-5.553,1.049,8.915,8.915,0,0,0-.865,3.633c-.049.453-.086.933-.165,1.381-.037.209-.094.505-.309.6-.116.056-.041.036-.172.036Z" transform="translate(-13.948 -4.355)"/><path class="soloLogoF" d="M23.578,13.936a1.636,1.636,0,1,1-1.636,1.636,1.636,1.636,0,0,1,1.636-1.636m7.807,0a1.636,1.636,0,1,1-1.156.479,1.636,1.636,0,0,1,1.156-.479Z" transform="translate(-9.622 -6.111)"/><path class="soloLogoD" d="M22.337,15.19a.474.474,0,1,1-.474.474.474.474,0,0,1,.474-.474m7.833,0a.474.474,0,1,1-.474.474.474.474,0,0,1,.474-.474m-4.451,9.158a4.43,4.43,0,0,0-4.428,4.309q-.1-.006-.2-.006a3.165,3.165,0,0,0,0,6.33h9.264a3.165,3.165,0,0,0,0-6.33,3.1,3.1,0,0,0-2.176.808,3.664,3.664,0,0,1,1.834-1.793,4.432,4.432,0,0,0-4.289-3.318" transform="translate(-7.859 -6.661)"/><path class="soloLogoG" d="M1.042,46.969a2.414,2.414,0,0,1,1.681-2.021c.505.381,1.018.755,1.543,1.109a27.848,27.848,0,0,0,2.517,1.495c1.4.742,1.835,1.179,3.506.921A49.7,49.7,0,0,1,17.9,47.9a48.815,48.815,0,0,1,9.532.916A37.488,37.488,0,0,1,35.7,51.426a2.294,2.294,0,0,1-1.084,2.391,34.874,34.874,0,0,0-7.7-2.425,46.2,46.2,0,0,0-9.018-.865,46.2,46.2,0,0,0-9.018.865,34.878,34.878,0,0,0-7.7,2.429A1.838,1.838,0,0,1,.09,51.433a34.423,34.423,0,0,1,4.395-1.652l.577-.174L4.542,49.3a36.383,36.383,0,0,1-3.5-2.332" transform="translate(0 -19.712)"/><path class="soloLogoH" d="M1.22,47.686a2.66,2.66,0,0,1,.467-1.159,35.091,35.091,0,0,0,5.149,3.4l-1.6.4-.519-.3a36.394,36.394,0,0,1-3.5-2.333M35.605,53.7a1.956,1.956,0,0,1-.813.807,34.873,34.873,0,0,0-7.7-2.425,46.2,46.2,0,0,0-9.018-.865,46.2,46.2,0,0,0-9.018.865,34.879,34.879,0,0,0-7.7,2.429,1.958,1.958,0,0,1-.951-.775c4.056-2.126,10.443-3.5,17.634-3.5,7.148,0,13.506,1.356,17.566,3.461" transform="translate(-0.178 -20.404)"/></g><path class="soloLogoI" d="M3.8,22.181H6.49a5.6,5.6,0,0,0,2.25-.459,5.813,5.813,0,0,0,1.849-1.26,5.911,5.911,0,0,0,1.249-1.849,5.739,5.739,0,0,0,0-4.5,5.861,5.861,0,0,0-3.1-3.1,5.6,5.6,0,0,0-2.25-.459H3.8ZM6.49,7.516a8.616,8.616,0,0,1,2.344.318,9.053,9.053,0,0,1,2.12.9,9.6,9.6,0,0,1,1.79,1.39,9.218,9.218,0,0,1,1.378,1.79,9.109,9.109,0,0,1,.9,2.108,8.616,8.616,0,0,1,.318,2.344,8.533,8.533,0,0,1-.318,2.344,9.053,9.053,0,0,1-.9,2.12,8.769,8.769,0,0,1-1.378,1.79A8.789,8.789,0,0,1,8.834,24.9a8.616,8.616,0,0,1-2.344.318H2.285a1.27,1.27,0,0,1-.554-.13,1.687,1.687,0,0,1-.495-.342A1.739,1.739,0,0,1,.9,24.266a1.3,1.3,0,0,1-.13-.565V9.035A1.27,1.27,0,0,1,.9,8.482a1.922,1.922,0,0,1,.342-.495,1.687,1.687,0,0,1,.495-.342,1.27,1.27,0,0,1,.554-.13ZM23.3,14.654a3.621,3.621,0,0,0-1.449.294,3.745,3.745,0,0,0-1.2.8,3.822,3.822,0,0,0-.813,1.2,3.636,3.636,0,0,0,0,2.921,3.861,3.861,0,0,0,2.014,2,3.608,3.608,0,0,0,2.909,0,3.822,3.822,0,0,0,1.2-.813,3.78,3.78,0,0,0,.8-1.19,3.77,3.77,0,0,0,0-2.921,3.681,3.681,0,0,0-2-2Zm0-3.039a6.922,6.922,0,0,1,1.814.236,7.172,7.172,0,0,1,1.614.683,7.038,7.038,0,0,1,2.45,2.45A7.172,7.172,0,0,1,29.86,16.6a7.056,7.056,0,0,1,0,3.616,7.113,7.113,0,0,1-.683,1.626,7.038,7.038,0,0,1-2.45,2.45,6.52,6.52,0,0,1-1.614.683,6.612,6.612,0,0,1-1.814.247,6.5,6.5,0,0,1-2.639-.542,6.834,6.834,0,0,1-3.628-3.628,6.5,6.5,0,0,1-.542-2.639,6.612,6.612,0,0,1,.247-1.814,6.52,6.52,0,0,1,.683-1.614,7.038,7.038,0,0,1,2.45-2.45A7.113,7.113,0,0,1,21.5,11.85Zm18.057,4.417a3.817,3.817,0,0,0-1.39-1.025,4.21,4.21,0,0,0-1.7-.353,4.081,4.081,0,0,0-1.508.283,4.228,4.228,0,0,0-1.26.789,3.888,3.888,0,0,0-.883,1.19,3.584,3.584,0,0,0,0,3,3.708,3.708,0,0,0,.883,1.19,3.936,3.936,0,0,0,1.26.789,4.081,4.081,0,0,0,1.508.283,4.057,4.057,0,0,0,3.157-1.5,1.885,1.885,0,0,1,.624-.495,1.508,1.508,0,0,1,.636-.153,1.488,1.488,0,0,1,.577.118,1.836,1.836,0,0,1,.495.318,1.739,1.739,0,0,1,.342.483,1.321,1.321,0,0,1,.13.577,1.8,1.8,0,0,1-.412,1.06,5.978,5.978,0,0,1-1.107,1.119,7.016,7.016,0,0,1-1.343.825,6.681,6.681,0,0,1-1.508.507,7.257,7.257,0,0,1-1.59.177,6.739,6.739,0,0,1-1.826-.247,7.147,7.147,0,0,1-1.661-.671,6.8,6.8,0,0,1-1.437-1.06,6.811,6.811,0,0,1-1.838-3,6.373,6.373,0,0,1-.259-1.826,6.494,6.494,0,0,1,.259-1.838,6.6,6.6,0,0,1,.73-1.626,6.88,6.88,0,0,1,1.107-1.378,7.027,7.027,0,0,1,1.437-1.048,7.147,7.147,0,0,1,1.661-.671,7.143,7.143,0,0,1,3.345-.071,7.694,7.694,0,0,1,1.437.471,8.125,8.125,0,0,1,1.307.766,7.362,7.362,0,0,1,1.119,1.037,1.88,1.88,0,0,1,.342.542,1.64,1.64,0,0,1,.094.542,1.432,1.432,0,0,1-.118.577,1.643,1.643,0,0,1-.33.483,1.664,1.664,0,0,1-.483.318,1.4,1.4,0,0,1-.565.118,1.5,1.5,0,0,1-.636-.141Zm9.506-.8a.941.941,0,0,0-.436-.471,1.581,1.581,0,0,0-.695-.153,1.335,1.335,0,0,0-.4.059,1.13,1.13,0,0,0-.33.188.848.848,0,0,0-.33.671.469.469,0,0,0,.118.306,1.6,1.6,0,0,0,.283.283,2.066,2.066,0,0,0,.353.224q.177.094.306.153L51,17.045a9.684,9.684,0,0,1,1.2.636,5.2,5.2,0,0,1,1,.836,3.687,3.687,0,0,1,.671,1.072,3.562,3.562,0,0,1,.247,1.366,4.111,4.111,0,0,1-.342,1.673A4.241,4.241,0,0,1,51.5,24.89a4.294,4.294,0,0,1-1.673.33,4.459,4.459,0,0,1-1.461-.247,4.715,4.715,0,0,1-1.331-.671,4.147,4.147,0,0,1-1.025-1.037,3.41,3.41,0,0,1-.577-1.355q-.024-.13-.035-.236a1.919,1.919,0,0,1-.012-.212,1.508,1.508,0,0,1,.471-1.131,1.562,1.562,0,0,1,.495-.294,1.507,1.507,0,0,1,.554-.106,1.556,1.556,0,0,1,.907.306,1.629,1.629,0,0,1,.589.978.88.88,0,0,0,.2.4,1.156,1.156,0,0,0,.342.306,1.439,1.439,0,0,0,.436.188,1.479,1.479,0,0,0,.448.071,1.672,1.672,0,0,0,.483-.071,1.344,1.344,0,0,0,.424-.212,1.045,1.045,0,0,0,.294-.342,1.02,1.02,0,0,0,.106-.483.707.707,0,0,0-.141-.412,1.869,1.869,0,0,0-.342-.365,3.98,3.98,0,0,0-.424-.283,3.157,3.157,0,0,0-.4-.2l-1.284-.53a6.043,6.043,0,0,1-1.131-.613,4.468,4.468,0,0,1-.919-.836,3.52,3.52,0,0,1-.624-1.025,3.184,3.184,0,0,1-.236-1.237,3.79,3.79,0,0,1,.33-1.578,4.174,4.174,0,0,1,2.191-2.144,4.1,4.1,0,0,1,1.578-.306,3.957,3.957,0,0,1,1.213.188,4.283,4.283,0,0,1,1.1.53,4.341,4.341,0,0,1,1.578,1.861,1.482,1.482,0,0,1,.141.6,1.272,1.272,0,0,1-.13.577,1.366,1.366,0,0,1-.365.448,1.708,1.708,0,0,1-1.1.4,1.441,1.441,0,0,1-.754-.212Z" transform="translate(206 11.78)"/></g></svg>